# xmcd
#
# Track frame offsets: 
#        150
#        25439
#        37802
#        55404
#        75774
#        93162
#        111832
#        123443
#        145153
#        162865
#        178337
#        195944
#
# Disc length: 2815 seconds
#
# Revision: 0
# Processed by: cddbd v1.5.2PL0 Copyright (c) Steve Scherf et al.
# Submitted via: ExactAudioCopy v1.0b1
#
DISCID=910afd0c
DTITLE=Steve Bell - Kindness
DYEAR=2010
DGENRE=
TTITLE0=About Love
TTITLE1=Kindness
TTITLE2=Changes
TTITLE3=Good Friend
TTITLE4=Absalom, Absalom
TTITLE5=These are the Ones
TTITLE6=In Billy's Wake
TTITLE7=Subble and Hay
TTITLE8=Birth of a Song
TTITLE9=Greatest Gift
TTITLE10=Gifting and the Giver
TTITLE11=Was it a Morning Like This
EXTD=
EXTT0=
EXTT1=
EXTT2=
EXTT3=
EXTT4=
EXTT5=
EXTT6=
EXTT7=
EXTT8=
EXTT9=
EXTT10=
EXTT11=
PLAYORDER=
